<svg xmlns="http://www.w3.org/2000/svg" viewBox="0 0 512 512">
  <rect width="512" height="512" fill="#000000"/>
  <g transform="translate(256, 256)">
    <!-- Outer ring -->
    <circle r="200" fill="none" stroke="#FF0000" stroke-width="8" opacity="0.3"/>
    <!-- ECG line -->
    <path d="M-180,0 L-100,0 L-70,-60 L-40,80 L-10,-40 L20,0 L50,0 L80,-30 L110,40 L140,0 L180,0" 
          fill="none" 
          stroke="#FF0000" 
          stroke-width="12" 
          stroke-linecap="round" 
          stroke-linejoin="round"/>
    <!-- Heart glow -->
    <circle cx="0" cy="60" r="30" fill="#8B0000" opacity="0.5"/>
    <text x="0" y="85" text-anchor="middle" fill="#FF0000" font-family="monospace" font-size="48" font-weight="bold">♥</text>
  </g>
  <!-- Corner markers -->
  <rect x="20" y="20" width="40" height="4" fill="#FF0000" opacity="0.5"/>
  <rect x="20" y="20" width="4" height="40" fill="#FF0000" opacity="0.5"/>
  <rect x="452" y="20" width="40" height="4" fill="#FF0000" opacity="0.5"/>
  <rect x="488" y="20" width="4" height="40" fill="#FF0000" opacity="0.5"/>
  <rect x="20" y="488" width="40" height="4" fill="#FF0000" opacity="0.5"/>
  <rect x="20" y="452" width="4" height="40" fill="#FF0000" opacity="0.5"/>
  <rect x="452" y="488" width="40" height="4" fill="#FF0000" opacity="0.5"/>
  <rect x="488" y="452" width="4" height="40" fill="#FF0000" opacity="0.5"/>
</svg>